<svg viewBox="0 0 1400 520" xmlns="http://www.w3.org/2000/svg" font-family="'Courier New',Courier,monospace">
<defs>
  <style>
    @keyframes twA{0%,100%{opacity:.9}50%{opacity:.2}}
    @keyframes twB{0%,100%{opacity:.5}40%{opacity:1}80%{opacity:.1}}
    @keyframes twC{0%,100%{opacity:.7}60%{opacity:.05}}
    @keyframes shoot1{0%{stroke-dashoffset:320;opacity:0}8%{opacity:1}80%{opacity:.7}100%{stroke-dashoffset:0;opacity:0}}
    @keyframes shoot2{0%{stroke-dashoffset:240;opacity:0}10%{opacity:.9}75%{opacity:.5}100%{stroke-dashoffset:0;opacity:0}}
    @keyframes shoot3{0%{stroke-dashoffset:280;opacity:0}6%{opacity:.8}70%{opacity:.4}100%{stroke-dashoffset:0;opacity:0}}
    @keyframes orbit1{from{transform:rotate(0deg) translateX(62px) rotate(0deg)}to{transform:rotate(360deg) translateX(62px) rotate(-360deg)}}
    @keyframes orbit2{from{transform:rotate(210deg) translateX(82px) rotate(-210deg)}to{transform:rotate(570deg) translateX(82px) rotate(-570deg)}}
    @keyframes pulse1{0%,100%{opacity:.4;r:68}50%{opacity:0;r:95}}
    @keyframes pulse2{0%,100%{opacity:.25;r:82}50%{opacity:0;r:112}}
    @keyframes glow{0%,100%{opacity:.65}50%{opacity:1}}
    @keyframes float1{0%,100%{transform:translateY(0)}50%{transform:translateY(-16px)}}
    @keyframes float2{0%,100%{transform:translateY(0)}50%{transform:translateY(-20px)}}
    @keyframes float3{0%,100%{transform:translateY(0)}50%{transform:translateY(-12px)}}
    @keyframes blink{0%,100%{opacity:1}50%{opacity:0}}
    .ta{animation:twA 2.6s ease-in-out infinite}
    .tb{animation:twB 3.8s ease-in-out infinite}
    .tc{animation:twC 5s ease-in-out infinite}
    .s1{stroke-dasharray:70 250;animation:shoot1 6s linear infinite 0.5s}
    .s2{stroke-dasharray:50 190;animation:shoot2 9s linear infinite 3s}
    .s3{stroke-dasharray:60 220;animation:shoot3 12s linear infinite 7s}
    .o1{animation:orbit1 10s linear infinite;transform-origin:210px 290px}
    .o2{animation:orbit2 16s linear infinite;transform-origin:210px 290px}
    .p1{animation:pulse1 3.5s ease-out infinite}
    .p2{animation:pulse2 3.5s ease-out infinite 1s}
    .gl{animation:glow 2.8s ease-in-out infinite}
    .f1{animation:float1 5s ease-in-out infinite}
    .f2{animation:float2 7s ease-in-out infinite 1.5s}
    .f3{animation:float3 6s ease-in-out infinite 3s}
    .cur{animation:blink 1.1s step-end infinite}
  </style>
  <radialGradient id="bg1" cx="20%" cy="50%" r="55%">
    <stop offset="0%" stop-color="#1a0050" stop-opacity=".7"/>
    <stop offset="100%" stop-color="#000008" stop-opacity="0"/>
  </radialGradient>
  <radialGradient id="bg2" cx="80%" cy="40%" r="50%">
    <stop offset="0%" stop-color="#001a3a" stop-opacity=".6"/>
    <stop offset="100%" stop-color="#000008" stop-opacity="0"/>
  </radialGradient>
  <radialGradient id="bg3" cx="55%" cy="80%" r="40%">
    <stop offset="0%" stop-color="#2a0030" stop-opacity=".4"/>
    <stop offset="100%" stop-color="#000008" stop-opacity="0"/>
  </radialGradient>
  <radialGradient id="bg4" cx="35%" cy="20%" r="35%">
    <stop offset="0%" stop-color="#001040" stop-opacity=".5"/>
    <stop offset="100%" stop-color="#000008" stop-opacity="0"/>
  </radialGradient>
  <radialGradient id="pg" cx="35%" cy="30%" r="65%">
    <stop offset="0%" stop-color="#3a6aff"/>
    <stop offset="40%" stop-color="#1030bb"/>
    <stop offset="75%" stop-color="#080e55"/>
    <stop offset="100%" stop-color="#02061e"/>
  </radialGradient>
  <radialGradient id="mg" cx="35%" cy="30%" r="60%">
    <stop offset="0%" stop-color="#aac0ff"/>
    <stop offset="100%" stop-color="#1c2650"/>
  </radialGradient>
  <radialGradient id="sg1" cx="50%" cy="50%" r="50%">
    <stop offset="0%" stop-color="#fff" stop-opacity="1"/>
    <stop offset="35%" stop-color="#bbdeff" stop-opacity=".6"/>
    <stop offset="100%" stop-color="#4488ff" stop-opacity="0"/>
  </radialGradient>
  <radialGradient id="sg2" cx="50%" cy="50%" r="50%">
    <stop offset="0%" stop-color="#fff" stop-opacity="1"/>
    <stop offset="35%" stop-color="#ffddaa" stop-opacity=".5"/>
    <stop offset="100%" stop-color="#ff8844" stop-opacity="0"/>
  </radialGradient>
  <linearGradient id="rg" x1="0%" y1="0%" x2="100%" y2="0%">
    <stop offset="0%" stop-color="#3a6aff" stop-opacity="0"/>
    <stop offset="25%" stop-color="#7aa8ff" stop-opacity=".55"/>
    <stop offset="50%" stop-color="#aac8ff" stop-opacity=".75"/>
    <stop offset="75%" stop-color="#7aa8ff" stop-opacity=".5"/>
    <stop offset="100%" stop-color="#3a6aff" stop-opacity="0"/>
  </linearGradient>
  <linearGradient id="acc" x1="0%" y1="0%" x2="100%" y2="0%">
    <stop offset="0%" stop-color="#7c3aff"/>
    <stop offset="33%" stop-color="#00d4ff"/>
    <stop offset="66%" stop-color="#ff2060"/>
    <stop offset="100%" stop-color="#7c3aff"/>
  </linearGradient>
  <linearGradient id="panelBg" x1="0%" y1="0%" x2="100%" y2="100%">
    <stop offset="0%" stop-color="#06091a" stop-opacity=".92"/>
    <stop offset="100%" stop-color="#030614" stop-opacity=".88"/>
  </linearGradient>
  <clipPath id="pc"><circle cx="210" cy="290" r="62"/></clipPath>
  <clipPath id="fc1"><rect x="0" y="270" width="1400" height="250"/></clipPath>
</defs>

<!-- ── BACKGROUND ── -->
<rect width="1400" height="520" fill="#000510"/>
<rect width="1400" height="520" fill="url(#bg1)"/>
<rect width="1400" height="520" fill="url(#bg2)"/>
<rect width="1400" height="520" fill="url(#bg3)"/>
<rect width="1400" height="520" fill="url(#bg4)"/>

<!-- ── TINY DISTANT STARS ── -->
<g fill="#fff">
  <circle cx="14" cy="18" r=".4" opacity=".4"/><circle cx="42" cy="8" r=".5" opacity=".6"/>
  <circle cx="75" cy="32" r=".4" opacity=".3"/><circle cx="102" cy="15" r=".6" opacity=".7"/>
  <circle cx="140" cy="44" r=".4" opacity=".4"/><circle cx="178" cy="22" r=".5" opacity=".5"/>
  <circle cx="215" cy="38" r=".4" opacity=".3"/><circle cx="252" cy="12" r=".6" opacity=".6"/>
  <circle cx="288" cy="50" r=".4" opacity=".4"/><circle cx="325" cy="28" r=".5" opacity=".5"/>
  <circle cx="362" cy="16" r=".4" opacity=".3"/><circle cx="398" cy="42" r=".6" opacity=".7"/>
  <circle cx="435" cy="10" r=".4" opacity=".4"/><circle cx="475" cy="36" r=".5" opacity=".5"/>
  <circle cx="515" cy="22" r=".4" opacity=".3"/><circle cx="555" cy="48" r=".6" opacity=".6"/>
  <circle cx="595" cy="14" r=".4" opacity=".4"/><circle cx="635" cy="32" r=".5" opacity=".5"/>
  <circle cx="672" cy="8" r=".4" opacity=".3"/><circle cx="712" cy="44" r=".6" opacity=".7"/>
  <circle cx="752" cy="20" r=".4" opacity=".4"/><circle cx="790" cy="38" r=".5" opacity=".5"/>
  <circle cx="828" cy="10" r=".4" opacity=".3"/><circle cx="868" cy="30" r=".6" opacity=".6"/>
  <circle cx="908" cy="46" r=".4" opacity=".4"/><circle cx="948" cy="18" r=".5" opacity=".5"/>
  <circle cx="988" cy="36" r=".4" opacity=".3"/><circle cx="1025" cy="8" r=".6" opacity=".7"/>
  <circle cx="1062" cy="42" r=".4" opacity=".4"/><circle cx="1100" cy="24" r=".5" opacity=".5"/>
  <circle cx="1138" cy="48" r=".4" opacity=".3"/><circle cx="1175" cy="16" r=".6" opacity=".6"/>
  <circle cx="1210" cy="38" r=".4" opacity=".4"/><circle cx="1248" cy="12" r=".5" opacity=".5"/>
  <circle cx="1285" cy="44" r=".4" opacity=".3"/><circle cx="1320" cy="28" r=".6" opacity=".7"/>
  <circle cx="1355" cy="10" r=".4" opacity=".4"/><circle cx="1385" cy="36" r=".5" opacity=".5"/>
  <!-- row 2 -->
  <circle cx="25" cy="80" r=".4" opacity=".35"/><circle cx="68" cy="95" r=".5" opacity=".5"/>
  <circle cx="110" cy="72" r=".4" opacity=".3"/><circle cx="155" cy="108" r=".6" opacity=".6"/>
  <circle cx="198" cy="85" r=".4" opacity=".4"/><circle cx="242" cy="102" r=".5" opacity=".45"/>
  <circle cx="285" cy="70" r=".4" opacity=".3"/><circle cx="330" cy="95" r=".6" opacity=".55"/>
  <circle cx="375" cy="115" r=".4" opacity=".3"/><circle cx="420" cy="78" r=".5" opacity=".5"/>
  <circle cx="465" cy="100" r=".4" opacity=".35"/><circle cx="512" cy="88" r=".6" opacity=".6"/>
  <circle cx="558" cy="112" r=".4" opacity=".3"/><circle cx="602" cy="76" r=".5" opacity=".5"/>
  <circle cx="648" cy="98" r=".4" opacity=".4"/><circle cx="692" cy="82" r=".6" opacity=".55"/>
  <circle cx="738" cy="108" r=".4" opacity=".3"/><circle cx="782" cy="72" r=".5" opacity=".5"/>
  <circle cx="828" cy="95" r=".4" opacity=".4"/><circle cx="872" cy="115" r=".6" opacity=".6"/>
  <circle cx="918" cy="80" r=".4" opacity=".3"/><circle cx="962" cy="100" r=".5" opacity=".45"/>
  <circle cx="1005" cy="75" r=".4" opacity=".4"/><circle cx="1048" cy="108" r=".6" opacity=".55"/>
  <circle cx="1092" cy="90" r=".4" opacity=".3"/><circle cx="1135" cy="72" r=".5" opacity=".5"/>
  <circle cx="1178" cy="105" r=".4" opacity=".4"/><circle cx="1220" cy="85" r=".6" opacity=".6"/>
  <circle cx="1262" cy="112" r=".4" opacity=".3"/><circle cx="1305" cy="78" r=".5" opacity=".5"/>
  <circle cx="1345" cy="96" r=".4" opacity=".35"/><circle cx="1382" cy="115" r=".6" opacity=".55"/>
  <!-- lower half stars -->
  <circle cx="18" cy="380" r=".4" opacity=".3"/><circle cx="58" cy="420" r=".5" opacity=".4"/>
  <circle cx="98" cy="395" r=".4" opacity=".25"/><circle cx="145" cy="445" r=".6" opacity=".5"/>
  <circle cx="188" cy="408" r=".4" opacity=".3"/><circle cx="235" cy="428" r=".5" opacity=".35"/>
  <circle cx="282" cy="388" r=".4" opacity=".25"/><circle cx="328" cy="455" r=".6" opacity=".45"/>
  <circle cx="375" cy="412" r=".4" opacity=".3"/><circle cx="422" cy="438" r=".5" opacity=".4"/>
  <circle cx="472" cy="395" r=".4" opacity=".25"/><circle cx="522" cy="462" r=".6" opacity=".5"/>
  <circle cx="572" cy="418" r=".4" opacity=".3"/><circle cx="622" cy="442" r=".5" opacity=".35"/>
  <circle cx="672" cy="400" r=".4" opacity=".25"/><circle cx="722" cy="458" r=".6" opacity=".45"/>
  <circle cx="772" cy="422" r=".4" opacity=".3"/><circle cx="822" cy="448" r=".5" opacity=".4"/>
  <circle cx="872" cy="405" r=".4" opacity=".25"/><circle cx="922" cy="465" r=".6" opacity=".5"/>
  <circle cx="972" cy="428" r=".4" opacity=".3"/><circle cx="1022" cy="445" r=".5" opacity=".35"/>
  <circle cx="1072" cy="410" r=".4" opacity=".25"/><circle cx="1122" cy="462" r=".6" opacity=".45"/>
  <circle cx="1172" cy="430" r=".4" opacity=".3"/><circle cx="1222" cy="450" r=".5" opacity=".4"/>
  <circle cx="1272" cy="415" r=".4" opacity=".25"/><circle cx="1322" cy="460" r=".6" opacity=".5"/>
  <circle cx="1365" cy="435" r=".4" opacity=".3"/><circle cx="1390" cy="458" r=".5" opacity=".35"/>
</g>

<!-- ── TWINKLING MEDIUM STARS ── -->
<g fill="#cce8ff">
  <circle class="ta" cx="88" cy="55" r="1.1" style="animation-delay:.2s"/>
  <circle class="tb" cx="245" cy="42" r="1.2" style="animation-delay:.9s"/>
  <circle class="ta" cx="410" cy="68" r="1.0" style="animation-delay:1.6s"/>
  <circle class="tc" cx="580" cy="35" r="1.3" style="animation-delay:.4s"/>
  <circle class="tb" cx="740" cy="58" r="1.1" style="animation-delay:2.1s"/>
  <circle class="ta" cx="900" cy="40" r="1.2" style="animation-delay:.7s"/>
  <circle class="tc" cx="1060" cy="62" r="1.0" style="animation-delay:1.3s"/>
  <circle class="tb" cx="1220" cy="38" r="1.3" style="animation-delay:.1s"/>
  <circle class="ta" cx="1360" cy="55" r="1.1" style="animation-delay:1.8s"/>
  <circle class="tc" cx="160" cy="148" r="1.0" style="animation-delay:.6s"/>
  <circle class="tb" cx="340" cy="162" r="1.2" style="animation-delay:2.4s"/>
  <circle class="ta" cx="520" cy="138" r="1.1" style="animation-delay:1.1s"/>
  <circle class="tc" cx="700" cy="155" r="1.0" style="animation-delay:.3s"/>
  <circle class="tb" cx="880" cy="142" r="1.3" style="animation-delay:1.9s"/>
  <circle class="ta" cx="1050" cy="165" r="1.1" style="animation-delay:.8s"/>
  <circle class="tc" cx="1225" cy="148" r="1.2" style="animation-delay:2.2s"/>
  <circle class="tb" cx="1370" cy="158" r="1.0" style="animation-delay:.5s"/>
  <circle class="ta" cx="60" cy="460" r="1.1" style="animation-delay:1.4s"/>
  <circle class="tc" cx="210" cy="482" r="1.0" style="animation-delay:.2s"/>
  <circle class="tb" cx="480" cy="468" r="1.2" style="animation-delay:1.7s"/>
  <circle class="ta" cx="750" cy="490" r="1.1" style="animation-delay:2.6s"/>
  <circle class="tc" cx="1020" cy="472" r="1.3" style="animation-delay:.8s"/>
  <circle class="tb" cx="1290" cy="488" r="1.0" style="animation-delay:1.5s"/>
</g>
<!-- warm twinkling stars -->
<g fill="#ffeebb">
  <circle class="tb" cx="330" cy="52" r="1.0" style="animation-delay:.5s"/>
  <circle class="ta" cx="760" cy="38" r="1.1" style="animation-delay:1.2s"/>
  <circle class="tc" cx="1130" cy="58" r="1.0" style="animation-delay:2.0s"/>
  <circle class="tb" cx="490" cy="148" r="1.1" style="animation-delay:.3s"/>
  <circle class="ta" cx="990" cy="138" r="1.0" style="animation-delay:1.7s"/>
</g>

<!-- ── BRIGHT STAR HALOS ── -->
<circle cx="82" cy="40" r="14" fill="url(#sg1)" opacity=".4"/>
<circle cx="82" cy="40" r="2.2" fill="#fff" class="gl" style="animation-delay:0s"/>
<circle cx="520" cy="28" r="12" fill="url(#sg1)" opacity=".35"/>
<circle cx="520" cy="28" r="1.9" fill="#e8f4ff" class="gl" style="animation-delay:1.1s"/>
<circle cx="960" cy="45" r="15" fill="url(#sg1)" opacity=".4"/>
<circle cx="960" cy="45" r="2.4" fill="#fff" class="gl" style="animation-delay:.6s"/>
<circle cx="1310" cy="32" r="11" fill="url(#sg1)" opacity=".32"/>
<circle cx="1310" cy="32" r="1.8" fill="#cce8ff" class="gl" style="animation-delay:2s"/>
<circle cx="348" cy="58" r="12" fill="url(#sg2)" opacity=".38"/>
<circle cx="348" cy="58" r="2.0" fill="#ffe8aa" class="gl" style="animation-delay:.4s"/>
<circle cx="762" cy="38" r="13" fill="url(#sg2)" opacity=".42"/>
<circle cx="762" cy="38" r="2.2" fill="#ffd898" class="gl" style="animation-delay:1.7s"/>
<circle cx="1142" cy="52" r="11" fill="url(#sg2)" opacity=".3"/>
<circle cx="1142" cy="52" r="1.8" fill="#ffeccc" class="gl" style="animation-delay:.9s"/>

<!-- ── SHOOTING STARS ── -->
<line class="s1" x1="180" y1="30" x2="490" y2="108" stroke="#fff" stroke-width="1.2" stroke-linecap="round"/>
<line class="s2" x1="680" y1="18" x2="940" y2="82" stroke="#aadeff" stroke-width="1.0" stroke-linecap="round"/>
<line class="s3" x1="1050" y1="22" x2="1310" y2="80" stroke="#fff" stroke-width=".9" stroke-linecap="round"/>

<!-- ── PLANET ── -->
<!-- pulse rings -->
<circle class="p1" cx="210" cy="290" r="68" fill="none" stroke="#2244cc" stroke-width=".8"/>
<circle class="p2" cx="210" cy="290" r="82" fill="none" stroke="#1a3399" stroke-width=".6"/>
<!-- back ring -->
<ellipse cx="210" cy="290" rx="105" ry="17" fill="none" stroke="url(#rg)" stroke-width="6" opacity=".6"/>
<!-- planet body -->
<circle cx="210" cy="290" r="62" fill="url(#pg)"/>
<!-- surface bands -->
<g clip-path="url(#pc)" opacity=".22">
  <ellipse cx="210" cy="270" rx="62" ry="7" fill="#6688ff"/>
  <ellipse cx="210" cy="285" rx="62" ry="6" fill="#3355cc"/>
  <ellipse cx="210" cy="299" rx="62" ry="5" fill="#5577dd"/>
  <ellipse cx="210" cy="312" rx="62" ry="4" fill="#4466cc"/>
</g>
<!-- night shadow -->
<path d="M210,228 A62,62 0 0,0 210,352" fill="#000018" opacity=".5"/>
<!-- front ring arc -->
<ellipse cx="210" cy="290" rx="105" ry="17" fill="none" stroke="url(#rg)" stroke-width="4" opacity=".38" clip-path="url(#fc1)"/>
<!-- orbiting moon 1 -->
<g class="o1">
  <circle cx="210" cy="228" r="12" fill="url(#mg)" opacity=".92"/>
  <circle cx="210" cy="224" r="3" fill="#fff" opacity=".1"/>
</g>
<!-- orbiting smaller moon 2 -->
<g class="o2">
  <circle cx="210" cy="208" r="7" fill="#6a7ec0" opacity=".75"/>
</g>

<!-- ── FLOATING CODE PARTICLES ── -->
<text class="f1" x="30" y="148" font-size="10.5" fill="#7c3aff" opacity=".6">def agent_loop():</text>
<text class="f2" x="22" y="420" font-size="9.5" fill="#00d4ff" opacity=".45">import llm_chain</text>
<text class="f3" x="45" y="465" font-size="9" fill="#ff2060" opacity=".5">{"role": "ai"}</text>
<text class="f1" x="340" y="420" font-size="10" fill="#b060ff" opacity=".4" style="animation-delay:.8s">model.fit(X_train)</text>
<text class="f2" x="355" y="468" font-size="9" fill="#00d4ff" opacity=".35" style="animation-delay:2s">∑ loss = 0.0</text>
<text class="f3" x="600" y="418" font-size="10" fill="#ff2060" opacity=".42" style="animation-delay:1.2s">RAG.query(prompt)</text>
<text class="f1" x="618" y="462" font-size="9" fill="#7c3aff" opacity=".38" style="animation-delay:3.5s">PromptOptix</text>
<text class="f2" x="840" y="428" font-size="10.5" fill="#00d4ff" opacity=".4" style="animation-delay:.4s">async def run():</text>
<text class="f3" x="858" y="470" font-size="9" fill="#b060ff" opacity=".35" style="animation-delay:2.8s">agents.execute()</text>
<text class="f1" x="1080" y="420" font-size="10" fill="#ff2060" opacity=".38" style="animation-delay:1.6s">fine_tune(epochs=10)</text>
<text class="f2" x="1098" y="462" font-size="9" fill="#7c3aff" opacity=".42" style="animation-delay:.2s">{"epoch": 42}</text>
<text class="f3" x="1300" y="432" font-size="10" fill="#00d4ff" opacity=".4" style="animation-delay:4s">llm.stream_chat()</text>
<text class="f1" x="1310" y="472" font-size="9" fill="#b060ff" opacity=".35" style="animation-delay:1s">torch.backward()</text>

<!-- ══════════════════════════════════ -->
<!-- ── MAIN PANEL ── -->
<!-- ══════════════════════════════════ -->
<rect x="348" y="22" width="1032" height="476" rx="18" fill="url(#panelBg)"/>
<rect x="348" y="22" width="1032" height="476" rx="18" fill="none" stroke="#2a1a55" stroke-width="1"/>
<!-- top accent bar -->
<rect x="348" y="22" width="1032" height="3" rx="2" fill="url(#acc)" opacity=".9"/>

<!-- ── SECTION 1: NAME + HEADLINE ── -->
<text x="374" y="72" font-size="34" font-weight="bold" fill="#f0f4ff" letter-spacing="1.5">Tanieshk Yadav</text>

<!-- role tags row -->
<!-- tag: AI Agent Engineer -->
<rect x="374" y="84" width="174" height="23" rx="11" fill="#12073a" stroke="#7c3aff" stroke-width="1"/>
<text x="461" y="100" font-size="10.5" fill="#aa80ff" text-anchor="middle" font-weight="bold">AI Agent Engineer</text>

<!-- tag: Final Year BE AI &amp; ML -->
<rect x="556" y="84" width="178" height="23" rx="11" fill="#00101e" stroke="#00d4ff" stroke-width="1"/>
<text x="645" y="100" font-size="10.5" fill="#60e0ff" text-anchor="middle" font-weight="bold">Final Year BE  ·  AI &amp; ML</text>

<!-- tag: Open to Internships -->
<rect x="742" y="84" width="178" height="23" rx="11" fill="#1a000e" stroke="#ff2060" stroke-width="1"/>
<text x="831" y="100" font-size="10.5" fill="#ff6090" text-anchor="middle" font-weight="bold">Open to Internships</text>

<!-- tag: India -->
<rect x="928" y="84" width="88" height="23" rx="11" fill="#0a0a1a" stroke="#4a5080" stroke-width="1"/>
<text x="972" y="100" font-size="10.5" fill="#8890b0" text-anchor="middle">India</text>

<!-- ── DIVIDER 1 ── -->
<line x1="374" y1="120" x2="1358" y2="120" stroke="#1c1438" stroke-width="1"/>

<!-- ── SECTION 2: 3-COL INFO ── -->
<!-- Col A: Currently Building -->
<text x="374" y="142" font-size="8.5" fill="#44405a" letter-spacing="2.5">BUILDING</text>
<text x="374" y="162" font-size="13" fill="#00d4ff" font-weight="bold">PromptOptix</text>
<text x="374" y="178" font-size="9.5" fill="#4a5070">Final year research paper</text>
<text x="374" y="192" font-size="9.5" fill="#4a5070">Solo lead developer</text>

<!-- Col B: Focus Areas -->
<text x="604" y="142" font-size="8.5" fill="#44405a" letter-spacing="2.5">FOCUS</text>
<text x="604" y="162" font-size="13" fill="#aa80ff" font-weight="bold">Agentic AI Systems</text>
<text x="604" y="178" font-size="9.5" fill="#4a5070">LLMs · Automation · RAG</text>
<text x="604" y="192" font-size="9.5" fill="#4a5070">Deep learning · Real-world AI</text>

<!-- Col C: Learning -->
<text x="870" y="142" font-size="8.5" fill="#44405a" letter-spacing="2.5">CURRENTLY LEARNING</text>
<text x="870" y="162" font-size="13" fill="#ff6090" font-weight="bold">Advanced Architectures</text>
<text x="870" y="178" font-size="9.5" fill="#4a5070">AI scaling · Intelligent systems</text>
<text x="870" y="192" font-size="9.5" fill="#4a5070">Agentic workflows · MLOps</text>

<!-- Col D: Collab -->
<text x="1140" y="142" font-size="8.5" fill="#44405a" letter-spacing="2.5">LOOKING TO</text>
<text x="1140" y="162" font-size="13" fill="#60e0ff" font-weight="bold">Collaborate On</text>
<text x="1140" y="178" font-size="9.5" fill="#4a5070">LLMs · Automation</text>
<text x="1140" y="192" font-size="9.5" fill="#4a5070">Agentic AI · Research</text>

<!-- ── DIVIDER 2 ── -->
<line x1="374" y1="208" x2="1358" y2="208" stroke="#1c1438" stroke-width="1"/>

<!-- ── SECTION 3: PINNED PROJECTS ── -->
<text x="374" y="228" font-size="8.5" fill="#44405a" letter-spacing="2.5">PINNED PROJECTS</text>

<!-- Project 1 -->
<rect x="374" y="236" width="228" height="70" rx="8" fill="#0a0820" stroke="#7c3aff" stroke-width=".8"/>
<rect x="374" y="236" width="228" height="4" rx="2" fill="#7c3aff" opacity=".7"/>
<text x="388" y="256" font-size="11" fill="#aa80ff" font-weight="bold">AI Agent Framework</text>
<text x="388" y="272" font-size="9" fill="#3d4060">Real-world agentic pipelines</text>
<text x="388" y="286" font-size="9" fill="#3d4060">LangChain · FastAPI · Python</text>
<text x="388" y="300" font-size="9" fill="#60508a">Python · LLM</text>

<!-- Project 2 -->
<rect x="614" y="236" width="228" height="70" rx="8" fill="#00060f" stroke="#00d4ff" stroke-width=".8"/>
<rect x="614" y="236" width="228" height="4" rx="2" fill="#00d4ff" opacity=".6"/>
<text x="628" y="256" font-size="11" fill="#60e0ff" font-weight="bold">PromptOptix</text>
<text x="628" y="272" font-size="9" fill="#2a4050">Prompt optimization research</text>
<text x="628" y="286" font-size="9" fill="#2a4050">LLM evals · benchmarks</text>
<text x="628" y="300" font-size="9" fill="#2a5565">Python · Research</text>

<!-- Project 3 -->
<rect x="854" y="236" width="228" height="70" rx="8" fill="#110005" stroke="#ff2060" stroke-width=".8"/>
<rect x="854" y="236" width="228" height="4" rx="2" fill="#ff2060" opacity=".6"/>
<text x="868" y="256" font-size="11" fill="#ff6090" font-weight="bold">Computer Vision App</text>
<text x="868" y="272" font-size="9" fill="#40202a">Real-time object detection</text>
<text x="868" y="286" font-size="9" fill="#40202a">OpenCV · TensorFlow</text>
<text x="868" y="300" font-size="9" fill="#602040">Python · CV</text>

<!-- Project 4 -->
<rect x="1094" y="236" width="240" height="70" rx="8" fill="#040c0a" stroke="#00b870" stroke-width=".8"/>
<rect x="1094" y="236" width="240" height="4" rx="2" fill="#00b870" opacity=".6"/>
<text x="1108" y="256" font-size="11" fill="#40d890" font-weight="bold">ML Pipeline Toolkit</text>
<text x="1108" y="272" font-size="9" fill="#1a3028">End-to-end training tools</text>
<text x="1108" y="286" font-size="9" fill="#1a3028">scikit-learn · Pandas · Streamlit</text>
<text x="1108" y="300" font-size="9" fill="#205038">Python · MLOps</text>

<!-- ── DIVIDER 3 ── -->
<line x1="374" y1="318" x2="1358" y2="318" stroke="#1c1438" stroke-width="1"/>

<!-- ── SECTION 4: TECH STACK ── -->
<text x="374" y="337" font-size="8.5" fill="#44405a" letter-spacing="2.5">TECH STACK</text>

<!-- AI/ML row label -->
<text x="374" y="355" font-size="8" fill="#7c3aff" letter-spacing="1">AI / ML</text>
<g font-size="9.5" font-weight="bold">
  <!-- purple pills -->
  <rect x="412" y="344" width="60" height="17" rx="8" fill="#0e072a" stroke="#7c3aff" stroke-width=".8"/>
  <text x="442" y="357" text-anchor="middle" fill="#aa80ff">Python</text>
  <rect x="480" y="344" width="72" height="17" rx="8" fill="#0e072a" stroke="#7c3aff" stroke-width=".8"/>
  <text x="516" y="357" text-anchor="middle" fill="#aa80ff">TensorFlow</text>
  <rect x="560" y="344" width="64" height="17" rx="8" fill="#0e072a" stroke="#7c3aff" stroke-width=".8"/>
  <text x="592" y="357" text-anchor="middle" fill="#aa80ff">PyTorch</text>
  <rect x="632" y="344" width="82" height="17" rx="8" fill="#0e072a" stroke="#7c3aff" stroke-width=".8"/>
  <text x="673" y="357" text-anchor="middle" fill="#aa80ff">scikit-learn</text>
  <rect x="722" y="344" width="66" height="17" rx="8" fill="#0e072a" stroke="#7c3aff" stroke-width=".8"/>
  <text x="755" y="357" text-anchor="middle" fill="#aa80ff">OpenCV</text>
  <rect x="796" y="344" width="56" height="17" rx="8" fill="#0e072a" stroke="#7c3aff" stroke-width=".8"/>
  <text x="824" y="357" text-anchor="middle" fill="#aa80ff">NumPy</text>
  <rect x="860" y="344" width="58" height="17" rx="8" fill="#0e072a" stroke="#7c3aff" stroke-width=".8"/>
  <text x="889" y="357" text-anchor="middle" fill="#aa80ff">Pandas</text>
  <rect x="926" y="344" width="74" height="17" rx="8" fill="#0e072a" stroke="#7c3aff" stroke-width=".8"/>
  <text x="963" y="357" text-anchor="middle" fill="#aa80ff">Matplotlib</text>
</g>

<!-- LLMs/Agents row label -->
<text x="374" y="378" font-size="8" fill="#00d4ff" letter-spacing="1">AGENTS / LLMs</text>
<g font-size="9.5" font-weight="bold">
  <rect x="476" y="367" width="80" height="17" rx="8" fill="#001525" stroke="#00d4ff" stroke-width=".8"/>
  <text x="516" y="380" text-anchor="middle" fill="#60e0ff">LangChain</text>
  <rect x="564" y="367" width="82" height="17" rx="8" fill="#001525" stroke="#00d4ff" stroke-width=".8"/>
  <text x="605" y="380" text-anchor="middle" fill="#60e0ff">LlamaIndex</text>
  <rect x="654" y="367" width="90" height="17" rx="8" fill="#001525" stroke="#00d4ff" stroke-width=".8"/>
  <text x="699" y="380" text-anchor="middle" fill="#60e0ff">HuggingFace</text>
  <rect x="752" y="367" width="72" height="17" rx="8" fill="#001525" stroke="#00d4ff" stroke-width=".8"/>
  <text x="788" y="380" text-anchor="middle" fill="#60e0ff">Streamlit</text>
  <rect x="832" y="367" width="68" height="17" rx="8" fill="#001525" stroke="#00d4ff" stroke-width=".8"/>
  <text x="866" y="380" text-anchor="middle" fill="#60e0ff">FastAPI</text>
  <rect x="908" y="367" width="66" height="17" rx="8" fill="#001525" stroke="#00d4ff" stroke-width=".8"/>
  <text x="941" y="380" text-anchor="middle" fill="#60e0ff">OpenAI</text>
</g>

<!-- Infra row label -->
<text x="374" y="402" font-size="8" fill="#ff2060" letter-spacing="1">INFRA / CLOUD</text>
<g font-size="9.5" font-weight="bold">
  <rect x="468" y="391" width="44" height="17" rx="8" fill="#120004" stroke="#ff2060" stroke-width=".8"/>
  <text x="490" y="404" text-anchor="middle" fill="#ff6090">AWS</text>
  <rect x="520" y="391" width="72" height="17" rx="8" fill="#120004" stroke="#ff2060" stroke-width=".8"/>
  <text x="556" y="404" text-anchor="middle" fill="#ff6090">Google Cloud</text>
  <rect x="600" y="391" width="60" height="17" rx="8" fill="#120004" stroke="#ff2060" stroke-width=".8"/>
  <text x="630" y="404" text-anchor="middle" fill="#ff6090">Docker</text>
  <rect x="668" y="391" width="58" height="17" rx="8" fill="#120004" stroke="#ff2060" stroke-width=".8"/>
  <text x="697" y="404" text-anchor="middle" fill="#ff6090">Vercel</text>
  <rect x="734" y="391" width="48" height="17" rx="8" fill="#120004" stroke="#ff2060" stroke-width=".8"/>
  <text x="758" y="404" text-anchor="middle" fill="#ff6090">Git</text>
  <rect x="790" y="391" width="58" height="17" rx="8" fill="#120004" stroke="#ff2060" stroke-width=".8"/>
  <text x="819" y="404" text-anchor="middle" fill="#ff6090">MySQL</text>
  <rect x="856" y="391" width="58" height="17" rx="8" fill="#120004" stroke="#ff2060" stroke-width=".8"/>
  <text x="885" y="404" text-anchor="middle" fill="#ff6090">SQLite</text>
  <rect x="922" y="391" width="66" height="17" rx="8" fill="#120004" stroke="#ff2060" stroke-width=".8"/>
  <text x="955" y="404" text-anchor="middle" fill="#ff6090">Power BI</text>
</g>

<!-- ── DIVIDER 4 ── -->
<line x1="374" y1="418" x2="1358" y2="418" stroke="#1c1438" stroke-width="1"/>

<!-- ── SECTION 5: SOCIALS + FUN FACT + TERMINAL LINE ── -->
<!-- Socials left cluster -->
<text x="374" y="437" font-size="8.5" fill="#44405a" letter-spacing="2.5">CONNECT</text>

<!-- LinkedIn pill -->
<rect x="374" y="445" width="92" height="20" rx="10" fill="#001226" stroke="#0077b5" stroke-width=".9"/>
<text x="420" y="459" font-size="9.5" fill="#3090cc" text-anchor="middle" font-weight="bold">LinkedIn</text>

<!-- GitHub pill -->
<rect x="474" y="445" width="82" height="20" rx="10" fill="#0a0a10" stroke="#555" stroke-width=".9"/>
<text x="515" y="459" font-size="9.5" fill="#9090aa" text-anchor="middle" font-weight="bold">GitHub</text>

<!-- Instagram pill -->
<rect x="564" y="445" width="98" height="20" rx="10" fill="#1a0015" stroke="#e4405f" stroke-width=".9"/>
<text x="613" y="459" font-size="9.5" fill="#dd5070" text-anchor="middle" font-weight="bold">Instagram</text>

<!-- X/Twitter pill -->
<rect x="670" y="445" width="60" height="20" rx="10" fill="#080808" stroke="#444" stroke-width=".9"/>
<text x="700" y="459" font-size="9.5" fill="#888898" text-anchor="middle" font-weight="bold">X</text>

<!-- Email pill -->
<rect x="738" y="445" width="68" height="20" rx="10" fill="#180600" stroke="#d14836" stroke-width=".9"/>
<text x="772" y="459" font-size="9.5" fill="#cc4428" text-anchor="middle" font-weight="bold">Email</text>

<!-- fun fact mid -->
<text x="374" y="488" font-size="9" fill="#3d4060">Fun fact:</text>
<text x="424" y="488" font-size="9" fill="#ff6090" font-weight="bold">Leading full development of group's final year paper — PromptOptix — solo</text>

<!-- ask me -->
<text x="374" y="503" font-size="9" fill="#3d4060">Ask me:</text>
<text x="422" y="503" font-size="9" fill="#60e0ff">AI agents · ML projects · real-world AI applications · agentic workflows</text>

<!-- terminal line bottom right -->
<text x="910" y="451" font-size="9.5" fill="#2a2a45">tanieshk@cosmos</text>
<text x="1008" y="451" font-size="9.5" fill="#333355">:</text>
<text x="1015" y="451" font-size="9.5" fill="#1a3a20">~/ai-agents</text>
<text x="1090" y="451" font-size="9.5" fill="#3d4060">$ git commit -m</text>
<text x="1215" y="451" font-size="9.5" fill="#7c3aff">"building the future"</text>
<text x="1348" y="451" font-size="9.5" fill="#00d4ff" class="cur">▋</text>

<!-- bottom glow bar -->
<rect x="348" y="495" width="1032" height="2" rx="1" fill="url(#acc)" opacity=".5"/>

<!-- ── EDGE GLOW LINE ── -->
<line x1="0" y1="517" x2="1400" y2="517" stroke="url(#acc)" stroke-width="1.5" opacity=".28"/>
</svg>
