<svg viewBox="0 0 1200 680" xmlns="http://www.w3.org/2000/svg" font-family="'Courier New',Courier,monospace">
<defs>
  <style>
    @keyframes blink    { 0%,49%{opacity:1}  50%,100%{opacity:0} }
    @keyframes pulse    { 0%,100%{opacity:.35} 50%{opacity:1} }
    @keyframes twinkle  { 0%,100%{opacity:.9} 50%{opacity:.15} }
    @keyframes comet    { 0%{stroke-dashoffset:400;opacity:0} 10%{opacity:.9} 90%{opacity:.6} 100%{stroke-dashoffset:0;opacity:0} }
    @keyframes orb1     { from{transform:rotate(0deg)   translateX(52px)  rotate(0deg)}   to{transform:rotate(360deg)  translateX(52px)  rotate(-360deg)} }
    @keyframes orb2     { from{transform:rotate(60deg)  translateX(88px)  rotate(-60deg)} to{transform:rotate(420deg)  translateX(88px)  rotate(-420deg)} }
    @keyframes orb3     { from{transform:rotate(140deg) translateX(128px) rotate(-140deg)} to{transform:rotate(500deg) translateX(128px) rotate(-500deg)} }
    @keyframes orb4     { from{transform:rotate(220deg) translateX(172px) rotate(-220deg)} to{transform:rotate(580deg) translateX(172px) rotate(-580deg)} }
    @keyframes orb5     { from{transform:rotate(300deg) translateX(210px) rotate(-300deg)} to{transform:rotate(660deg) translateX(210px) rotate(-660deg)} }
    @keyframes nebulaPulse { 0%,100%{opacity:.12} 50%{opacity:.22} }
    @keyframes breathe  { 0%,100%{r:9} 50%{r:11.5} }
    .cur { animation: blink 1s step-end infinite }
    .pl  { animation: pulse 2.2s ease-in-out infinite }
    .tw  { animation: twinkle 3.8s ease-in-out infinite }
    .sh1 { stroke-dasharray:80 240; animation: comet 7s  linear infinite 0.5s }
    .sh2 { stroke-dasharray:55 190; animation: comet 10s linear infinite 4s }
    .sh3 { stroke-dasharray:40 160; animation: comet 8s  linear infinite 2s }
    .o1  { animation: orb1  6s  linear infinite; transform-origin: 195px 310px }
    .o2  { animation: orb2  11s linear infinite; transform-origin: 195px 310px }
    .o3  { animation: orb3  17s linear infinite; transform-origin: 195px 310px }
    .o4  { animation: orb4  25s linear infinite; transform-origin: 195px 310px }
    .o5  { animation: orb5  38s linear infinite; transform-origin: 195px 310px }
    .br  { animation: breathe 2.8s ease-in-out infinite }
    .neb { animation: nebulaPulse 5s ease-in-out infinite }
  </style>

  <linearGradient id="bg" x1="0%" y1="0%" x2="100%" y2="100%">
    <stop offset="0%"   stop-color="#020510"/>
    <stop offset="55%"  stop-color="#04091a"/>
    <stop offset="100%" stop-color="#010308"/>
  </linearGradient>
  <linearGradient id="neonH" x1="0%" y1="0%" x2="100%" y2="0%">
    <stop offset="0%"   stop-color="#0044ff" stop-opacity="0"/>
    <stop offset="25%"  stop-color="#4488ff" stop-opacity=".95"/>
    <stop offset="55%"  stop-color="#00d4ff" stop-opacity=".95"/>
    <stop offset="100%" stop-color="#0044ff" stop-opacity="0"/>
  </linearGradient>

  <radialGradient id="sunGrad" cx="38%" cy="32%" r="68%">
    <stop offset="0%"   stop-color="#fff7c0"/>
    <stop offset="40%"  stop-color="#ffd040"/>
    <stop offset="100%" stop-color="#ff7700"/>
  </radialGradient>
  <radialGradient id="p1g" cx="35%" cy="30%" r="65%"><stop offset="0%" stop-color="#80c8ff"/><stop offset="100%" stop-color="#003570"/></radialGradient>
  <radialGradient id="p2g" cx="35%" cy="30%" r="65%"><stop offset="0%" stop-color="#c880ff"/><stop offset="100%" stop-color="#280058"/></radialGradient>
  <radialGradient id="p3g" cx="35%" cy="30%" r="65%"><stop offset="0%" stop-color="#80ffc8"/><stop offset="100%" stop-color="#003828"/></radialGradient>
  <radialGradient id="p4g" cx="35%" cy="30%" r="65%"><stop offset="0%" stop-color="#ffb060"/><stop offset="100%" stop-color="#5a1c00"/></radialGradient>
  <radialGradient id="p5g" cx="35%" cy="30%" r="65%"><stop offset="0%" stop-color="#ff8080"/><stop offset="100%" stop-color="#4a0010"/></radialGradient>
  <radialGradient id="nebulaRad" cx="50%" cy="50%" r="50%">
    <stop offset="0%"   stop-color="#6622dd" stop-opacity=".4"/>
    <stop offset="60%"  stop-color="#0044cc" stop-opacity=".15"/>
    <stop offset="100%" stop-color="#000022" stop-opacity="0"/>
  </radialGradient>

  <filter id="glow4"><feGaussianBlur stdDeviation="4" result="b"/><feMerge><feMergeNode in="b"/><feMergeNode in="SourceGraphic"/></feMerge></filter>
  <filter id="glow8"><feGaussianBlur stdDeviation="8" result="b"/><feMerge><feMergeNode in="b"/><feMergeNode in="SourceGraphic"/></feMerge></filter>
  <filter id="glow14"><feGaussianBlur stdDeviation="14" result="b"/><feMerge><feMergeNode in="b"/><feMergeNode in="SourceGraphic"/></feMerge></filter>

  <clipPath id="clip"><rect width="1200" height="680"/></clipPath>
  <clipPath id="leftClip"><rect x="18" y="62" width="382" height="600"/></clipPath>
</defs>

<g clip-path="url(#clip)">
<rect width="1200" height="680" fill="url(#bg)"/>

<!-- Grid -->
<g stroke="#0a1a40" stroke-width=".3" opacity=".2" fill="none">
  <line x1="0" y1="60"  x2="1200" y2="60"/>  <line x1="0" y1="120" x2="1200" y2="120"/>
  <line x1="0" y1="180" x2="1200" y2="180"/>  <line x1="0" y1="240" x2="1200" y2="240"/>
  <line x1="0" y1="300" x2="1200" y2="300"/>  <line x1="0" y1="360" x2="1200" y2="360"/>
  <line x1="0" y1="420" x2="1200" y2="420"/>  <line x1="0" y1="480" x2="1200" y2="480"/>
  <line x1="0" y1="540" x2="1200" y2="540"/>  <line x1="0" y1="600" x2="1200" y2="600"/>
  <line x1="60"  y1="0" x2="60"  y2="680"/> <line x1="120" y1="0" x2="120" y2="680"/>
  <line x1="180" y1="0" x2="180" y2="680"/> <line x1="240" y1="0" x2="240" y2="680"/>
  <line x1="300" y1="0" x2="300" y2="680"/> <line x1="360" y1="0" x2="360" y2="680"/>
  <line x1="420" y1="0" x2="420" y2="680"/> <line x1="480" y1="0" x2="480" y2="680"/>
  <line x1="540" y1="0" x2="540" y2="680"/> <line x1="600" y1="0" x2="600" y2="680"/>
  <line x1="660" y1="0" x2="660" y2="680"/> <line x1="720" y1="0" x2="720" y2="680"/>
  <line x1="780" y1="0" x2="780" y2="680"/> <line x1="840" y1="0" x2="840" y2="680"/>
  <line x1="900" y1="0" x2="900" y2="680"/> <line x1="960" y1="0" x2="960" y2="680"/>
  <line x1="1020" y1="0" x2="1020" y2="680"/><line x1="1080" y1="0" x2="1080" y2="680"/>
  <line x1="1140" y1="0" x2="1140" y2="680"/>
</g>

<!-- Stars -->
<g fill="#c8e8ff">
  <circle cx="8"    cy="15"  r=".5" opacity=".6" class="tw" style="animation-delay:.3s"/>
  <circle cx="50"   cy="6"   r=".6" opacity=".7" class="tw" style="animation-delay:1.2s"/>
  <circle cx="105"  cy="28"  r=".4" opacity=".5"/>
  <circle cx="170"  cy="10"  r=".7" opacity=".8" class="tw" style="animation-delay:.8s"/>
  <circle cx="238"  cy="38"  r=".5" opacity=".5" class="tw" style="animation-delay:2.1s"/>
  <circle cx="315"  cy="16"  r=".4" opacity=".4"/>
  <circle cx="395"  cy="30"  r=".6" opacity=".6" class="tw" style="animation-delay:1.6s"/>
  <circle cx="475"  cy="12"  r=".5" opacity=".5"/>
  <circle cx="565"  cy="36"  r=".4" opacity=".4" class="tw" style="animation-delay:.5s"/>
  <circle cx="658"  cy="8"   r=".7" opacity=".7" class="tw" style="animation-delay:2.4s"/>
  <circle cx="748"  cy="26"  r=".5" opacity=".5"/>
  <circle cx="838"  cy="14"  r=".4" opacity=".4" class="tw" style="animation-delay:1.9s"/>
  <circle cx="928"  cy="40"  r=".6" opacity=".6" class="tw" style="animation-delay:.9s"/>
  <circle cx="1018" cy="10"  r=".5" opacity=".5"/>
  <circle cx="1105" cy="30"  r=".4" opacity=".4" class="tw" style="animation-delay:1.4s"/>
  <circle cx="1188" cy="16"  r=".7" opacity=".7" class="tw" style="animation-delay:.4s"/>
</g>
<g fill="#ffffff">
  <circle cx="28"   cy="44"  r="1"   opacity=".85" class="tw" style="animation-delay:.6s"/>
  <circle cx="288"  cy="20"  r="1.1" opacity=".9"  class="tw" style="animation-delay:1.5s"/>
  <circle cx="628"  cy="46"  r="1"   opacity=".85" class="tw" style="animation-delay:2.3s"/>
  <circle cx="988"  cy="22"  r="1.1" opacity=".9"  class="tw" style="animation-delay:.2s"/>
</g>

<!-- Comets -->
<line class="sh1" x1="60"  y1="20" x2="440" y2="95"  stroke="#4488ff" stroke-width="1.5" stroke-linecap="round"/>
<line class="sh2" x1="780" y1="12" x2="1100" y2="72" stroke="#00d4ff" stroke-width="1.1" stroke-linecap="round"/>
<line class="sh3" x1="200" y1="8"  x2="500"  y2="55" stroke="#aaddff" stroke-width="1"   stroke-linecap="round"/>

<!-- Nebula glow -->
<ellipse cx="195" cy="310" rx="180" ry="200" fill="url(#nebulaRad)" class="neb" filter="url(#glow14)"/>

<!-- Window frame -->
<rect x="18" y="18" width="1164" height="644" rx="10" fill="#030a1e" stroke="url(#neonH)" stroke-width="2.5"/>
<rect x="18" y="18" width="1164" height="42" fill="#050e28" rx="10"/>
<rect x="18" y="42"  width="1164" height="18" fill="#050e28"/>
<circle cx="46" cy="39" r="8" fill="#ff5f56"/>
<circle cx="74" cy="39" r="8" fill="#ffbd2e"/>
<circle cx="102" cy="39" r="8" fill="#3b82f6"/>
<text x="128" y="45" font-size="14" fill="#00d4ff" filter="url(#glow4)">tanieshk@cosmos ~ ./launch_sequence.sh</text>
<rect x="18" y="60" width="1164" height="2.5" fill="url(#neonH)" filter="url(#glow4)" opacity=".9"/>
<line x1="400" y1="62" x2="400" y2="662" stroke="#0a2060" stroke-width="1.5"/>

<!-- ════ LEFT PANEL ════ -->
<text x="35" y="92" font-size="11" fill="#1a4488" letter-spacing="2">COSMIC  COORDINATES</text>

<g clip-path="url(#leftClip)">

<!-- Star field -->
<g fill="#ffffff" opacity=".6">
  <circle cx="40"  cy="110" r=".7" class="tw" style="animation-delay:.4s"/>
  <circle cx="75"  cy="145" r=".5" class="tw" style="animation-delay:1.3s"/>
  <circle cx="110" cy="105" r=".6" class="tw" style="animation-delay:2.0s"/>
  <circle cx="148" cy="130" r=".4"/>
  <circle cx="330" cy="105" r=".5" class="tw" style="animation-delay:.2s"/>
  <circle cx="365" cy="125" r=".4"/>
  <circle cx="50"  cy="175" r=".5" class="tw" style="animation-delay:1.0s"/>
  <circle cx="355" cy="175" r=".5" class="tw" style="animation-delay:.9s"/>
  <circle cx="35"  cy="530" r=".6" class="tw" style="animation-delay:1.2s"/>
  <circle cx="80"  cy="555" r=".4"/>
  <circle cx="120" cy="540" r=".5" class="tw" style="animation-delay:2.2s"/>
  <circle cx="270" cy="545" r=".5" class="tw" style="animation-delay:.5s"/>
  <circle cx="370" cy="530" r=".6" class="tw" style="animation-delay:1.5s"/>
</g>
<g fill="#88ccff" opacity=".85">
  <circle cx="55"  cy="155" r=".9" class="tw" style="animation-delay:.8s"/>
  <circle cx="340" cy="148" r=".8" class="tw" style="animation-delay:2.1s"/>
  <circle cx="90"  cy="545" r=".9" class="tw" style="animation-delay:1.1s"/>
</g>

<!-- Orbit rings -->
<g fill="none" stroke-width=".8" opacity=".25">
  <ellipse cx="195" cy="310" rx="52"  ry="18" stroke="#4488ff"/>
  <ellipse cx="195" cy="310" rx="88"  ry="30" stroke="#9933ff"/>
  <ellipse cx="195" cy="310" rx="128" ry="44" stroke="#00c8ff"/>
  <ellipse cx="195" cy="310" rx="165" ry="57" stroke="#ff9900"/>
  <ellipse cx="195" cy="310" rx="198" ry="68" stroke="#ff4488"/>
</g>

<!-- Sun -->
<circle cx="195" cy="310" r="26" fill="#ff8800" opacity=".2" filter="url(#glow14)"/>
<circle cx="195" cy="310" r="18" fill="#ffcc44" opacity=".3"  filter="url(#glow8)"/>
<circle cx="195" cy="310" r="12" fill="url(#sunGrad)" filter="url(#glow8)"/>

<!-- Orbiting planets -->
<g class="o1"><circle cx="195" cy="310" r="5" fill="url(#p1g)" filter="url(#glow4)"/></g>
<g class="o2"><circle cx="195" cy="310" r="7" fill="url(#p2g)" filter="url(#glow4)"/></g>
<g class="o3">
  <circle cx="195" cy="310" r="8"  fill="url(#p3g)" filter="url(#glow4)"/>
  <circle cx="195" cy="298" r="2.5" fill="#c8d8e8" opacity=".7"/>
</g>
<g class="o4">
  <ellipse cx="195" cy="310" rx="22" ry="5" fill="none" stroke="#ffaa44" stroke-width="3" opacity=".45"/>
  <circle  cx="195" cy="310" r="10" fill="url(#p4g)" filter="url(#glow4)"/>
</g>
<g class="o5"><circle cx="195" cy="310" r="9" fill="url(#p5g)" filter="url(#glow4)"/></g>

<!-- Asteroid belt dots -->
<g fill="#446688" opacity=".5">
  <circle cx="90"  cy="293" r="1.2"/><circle cx="80"  cy="312" r=".9"/>
  <circle cx="92"  cy="330" r="1.1"/><circle cx="106" cy="275" r=".8"/>
  <circle cx="72"  cy="305" r="1.3"/><circle cx="298" cy="290" r="1.2"/>
  <circle cx="310" cy="312" r=".9"/> <circle cx="302" cy="330" r="1.1"/>
  <circle cx="150" cy="198" r="1.1"/><circle cx="175" cy="191" r=".9"/>
  <circle cx="200" cy="187" r="1.2"/><circle cx="225" cy="192" r=".8"/>
  <circle cx="245" cy="202" r="1"/> <circle cx="150" cy="420" r="1.1"/>
  <circle cx="175" cy="428" r=".9"/> <circle cx="200" cy="431" r="1.2"/>
  <circle cx="225" cy="427" r=".8"/> <circle cx="245" cy="418" r="1"/>
</g>

<!-- ── PLANET LEGEND: vertical list, safely inside panel ── -->
<text x="35" y="412" font-size="10" fill="#1a4488" letter-spacing="1.5">SYSTEM MAP</text>
<line x1="35" y1="416" x2="385" y2="416" stroke="#0a2060" stroke-width=".8" opacity=".6"/>

<!-- Row per planet: dot + name + role inline -->
<g font-size="10">
  <circle cx="46" cy="429" r="4.5" fill="url(#p1g)" filter="url(#glow4)"/>
  <text x="58" y="433"><tspan fill="#80c8ff" font-weight="bold">Mercury</tspan><tspan fill="#2a5080">  —  inner orbit, fastest</tspan></text>

  <circle cx="46" cy="449" r="5.5" fill="url(#p2g)" filter="url(#glow4)"/>
  <text x="58" y="453"><tspan fill="#c880ff" font-weight="bold">Venus</tspan><tspan fill="#2a5080">  —  shrouded in cloud</tspan></text>

  <circle cx="46" cy="469" r="6" fill="url(#p3g)" filter="url(#glow4)"/>
  <text x="58" y="473"><tspan fill="#80ffc8" font-weight="bold">Earth</tspan><tspan fill="#2a5080">  —  home base 🌍</tspan></text>

  <circle cx="46" cy="489" r="8" fill="url(#p4g)" filter="url(#glow4)"/>
  <text x="58" y="493"><tspan fill="#ffb060" font-weight="bold">Jupiter</tspan><tspan fill="#2a5080">  —  ringed giant</tspan></text>

  <circle cx="46" cy="509" r="7" fill="url(#p5g)" filter="url(#glow4)"/>
  <text x="58" y="513"><tspan fill="#ff8080" font-weight="bold">Nebula</tspan><tspan fill="#2a5080">  —  distant frontier</tspan></text>
</g>

<line x1="35" y1="524" x2="385" y2="524" stroke="#0a2060" stroke-width=".8" opacity=".6"/>

<!-- Tech Stack -->
<text x="35" y="539" font-size="10" fill="#1a4488" letter-spacing="1">TECH  STACK</text>
<g font-size="10" font-weight="bold">
  <rect x="35"  y="546" width="62" height="18" rx="9" fill="#000c1e" stroke="#4488ff" stroke-width="1"/>
  <text x="66"  y="559" text-anchor="middle" fill="#80c8ff">Python</text>
  <rect x="103" y="546" width="78" height="18" rx="9" fill="#000c1e" stroke="#4488ff" stroke-width="1"/>
  <text x="142" y="559" text-anchor="middle" fill="#80c8ff">TensorFlow</text>
  <rect x="187" y="546" width="68" height="18" rx="9" fill="#000c1e" stroke="#4488ff" stroke-width="1"/>
  <text x="221" y="559" text-anchor="middle" fill="#80c8ff">PyTorch</text>
  <rect x="261" y="546" width="80" height="18" rx="9" fill="#000c1e" stroke="#4488ff" stroke-width="1"/>
  <text x="301" y="559" text-anchor="middle" fill="#80c8ff">scikit-learn</text>

  <rect x="35"  y="570" width="74" height="18" rx="9" fill="#0a0025" stroke="#9933ff" stroke-width="1"/>
  <text x="72"  y="583" text-anchor="middle" fill="#c880ff">LangChain</text>
  <rect x="115" y="570" width="80" height="18" rx="9" fill="#0a0025" stroke="#9933ff" stroke-width="1"/>
  <text x="155" y="583" text-anchor="middle" fill="#c880ff">LlamaIndex</text>
  <rect x="201" y="570" width="86" height="18" rx="9" fill="#0a0025" stroke="#9933ff" stroke-width="1"/>
  <text x="244" y="583" text-anchor="middle" fill="#c880ff">HuggingFace</text>

  <rect x="35"  y="594" width="66" height="18" rx="9" fill="#001410" stroke="#00c8aa" stroke-width="1"/>
  <text x="68"  y="607" text-anchor="middle" fill="#80ffc8">OpenCV</text>
  <rect x="107" y="594" width="40" height="18" rx="9" fill="#001410" stroke="#00c8aa" stroke-width="1"/>
  <text x="127" y="607" text-anchor="middle" fill="#80ffc8">AWS</text>
  <rect x="153" y="594" width="58" height="18" rx="9" fill="#001410" stroke="#00c8aa" stroke-width="1"/>
  <text x="182" y="607" text-anchor="middle" fill="#80ffc8">FastAPI</text>
  <rect x="217" y="594" width="54" height="18" rx="9" fill="#001410" stroke="#00c8aa" stroke-width="1"/>
  <text x="244" y="607" text-anchor="middle" fill="#80ffc8">Docker</text>
  <rect x="277" y="594" width="50" height="18" rx="9" fill="#001410" stroke="#00c8aa" stroke-width="1"/>
  <text x="302" y="607" text-anchor="middle" fill="#80ffc8">MySQL</text>
</g>

</g><!-- end leftClip -->

<text x="195" y="648" font-size="10" fill="#0a2a60" font-style="italic" text-anchor="middle">✦ Ad Astra Per Codicem ✦</text>

<!-- ════ RIGHT PANEL ════ -->
<text x="424" y="100" font-size="11" fill="#1a4488" letter-spacing="3">ENGINEER  ·  BUILDER  ·  RESEARCHER</text>
<text x="422" y="152" font-size="46" font-weight="bold" fill="#00d4ff" filter="url(#glow8)" letter-spacing="1.5" opacity=".3">Tanieshk Yadav</text>
<text x="422" y="152" font-size="46" font-weight="bold" fill="#aaeeff" letter-spacing="1.5">Tanieshk Yadav</text>

<rect x="422" y="163" width="172" height="26" rx="13" fill="#00091a" stroke="#4488ff" stroke-width="1.3"/>
<text x="508" y="181" font-size="13" fill="#80c8ff" text-anchor="middle" font-weight="bold">AI Agent Engineer</text>
<rect x="603" y="163" width="196" height="26" rx="13" fill="#000e20" stroke="#00d4ff" stroke-width="1.3"/>
<text x="701" y="181" font-size="13" fill="#60e0ff" text-anchor="middle" font-weight="bold">Final Year BE · AI &amp; ML</text>
<rect x="808" y="163" width="182" height="26" rx="13" fill="#08001a" stroke="#9933ff" stroke-width="1.3"/>
<text x="899" y="181" font-size="13" fill="#c880ff" text-anchor="middle" font-weight="bold">Open to Internships</text>
<rect x="999" y="163" width="88"  height="26" rx="13" fill="#0a0800" stroke="#ffaa00" stroke-width="1.3"/>
<text x="1043" y="181" font-size="13" fill="#ffd060" text-anchor="middle">India 🇮🇳</text>

<line x1="422" y1="200" x2="1168" y2="200" stroke="url(#neonH)" stroke-width="1" opacity=".45"/>
<text x="422" y="200" font-size="10" fill="#071840">━━━━━━━━━━━━━━━━━━━━━━━━━━━━━━━━━━━━━━━━━━━━━━━━━━━━━━━━━━━━━━━━━━━━━━━━━━━━━━━</text>

<text x="422" y="228" font-size="15" fill="#00d4ff" font-weight="bold" filter="url(#glow4)">$ ./tanieshk --info</text>
<text x="422" y="252" font-size="14" fill="#0a2050">━━━━━━━━━━━━━━━━━━━━━━━━━━━━━━━━━━━━━━━━━━━━━━━━━━━━━━━━</text>
<text x="422" y="276" font-size="14"><tspan fill="#555">  🔭  Building  </tspan><tspan fill="#aaeeff" font-weight="bold">PromptOptix</tspan><tspan fill="#444">  —  Final year research paper, solo lead dev</tspan></text>
<text x="422" y="298" font-size="14"><tspan fill="#555">  🚀  Focus     </tspan><tspan fill="#60e0ff" font-weight="bold">Agentic AI Systems</tspan><tspan fill="#444">  ·  LLMs  ·  RAG  ·  Automation</tspan></text>
<text x="422" y="320" font-size="14"><tspan fill="#555">  🌌  Learning  </tspan><tspan fill="#ffd060" font-weight="bold">Advanced Architectures</tspan><tspan fill="#444">  ·  AI scaling  ·  MLOps</tspan></text>
<text x="422" y="342" font-size="14"><tspan fill="#555">  🤝  Collab    </tspan><tspan fill="#c880ff" font-weight="bold">LLMs  ·  Agentic AI  ·  Research  ·  Automation</tspan></text>

<text x="422" y="358" font-size="10" fill="#071840">━━━━━━━━━━━━━━━━━━━━━━━━━━━━━━━━━━━━━━━━━━━━━━━━━━━━━━━━━━━━━━━━━━━━━━━━━━━━━━━</text>

<text x="422" y="382" font-size="15" fill="#00d4ff" font-weight="bold" filter="url(#glow4)">$ ./projects --pinned</text>
<text x="422" y="398" font-size="10" fill="#071840">━━━━━━━━━━━━━━━━━━━━━━━━━━━━━━━━━━━━━━━━━━━━━━━━━━━━━━━━━━━━━━━━━━━━━━━━━━━━━━━</text>

<rect x="422" y="406" width="182" height="88" rx="9" fill="#00091e" stroke="#4488ff" stroke-width="1.3"/>
<rect x="422" y="406" width="182" height="3"  rx="2" fill="#4488ff"/>
<text x="436" y="428" font-size="13" fill="#80c8ff" font-weight="bold">AI Agent Framework</text>
<text x="436" y="446" font-size="11" fill="#0a2a50">Agentic pipelines</text>
<text x="436" y="462" font-size="11" fill="#0a2a50">LangChain · FastAPI</text>
<text x="436" y="488" font-size="10" fill="#071840">Python · LLM</text>

<rect x="614" y="406" width="182" height="88" rx="9" fill="#080018" stroke="#9933ff" stroke-width="1.3"/>
<rect x="614" y="406" width="182" height="3"  rx="2" fill="#9933ff"/>
<text x="628" y="428" font-size="13" fill="#c880ff" font-weight="bold">PromptOptix</text>
<text x="628" y="446" font-size="11" fill="#28104a">Prompt optimization</text>
<text x="628" y="462" font-size="11" fill="#28104a">LLM evals · benchmarks</text>
<text x="628" y="488" font-size="10" fill="#1a0832">Python · Research</text>

<rect x="806" y="406" width="182" height="88" rx="9" fill="#001414" stroke="#00c8aa" stroke-width="1.3"/>
<rect x="806" y="406" width="182" height="3"  rx="2" fill="#00c8aa"/>
<text x="820" y="428" font-size="13" fill="#80ffc8" font-weight="bold">Computer Vision App</text>
<text x="820" y="446" font-size="11" fill="#0a3028">Real-time detection</text>
<text x="820" y="462" font-size="11" fill="#0a3028">OpenCV · TensorFlow</text>
<text x="820" y="488" font-size="10" fill="#071e18">Python · CV</text>

<rect x="998" y="406" width="182" height="88" rx="9" fill="#120e00" stroke="#ffaa00" stroke-width="1.3"/>
<rect x="998" y="406" width="182" height="3"  rx="2" fill="#ffaa00"/>
<text x="1012" y="428" font-size="13" fill="#ffd060" font-weight="bold">ML Pipeline Toolkit</text>
<text x="1012" y="446" font-size="11" fill="#503800">End-to-end training</text>
<text x="1012" y="462" font-size="11" fill="#503800">scikit-learn · Pandas</text>
<text x="1012" y="488" font-size="10" fill="#352500">Python · MLOps</text>

<text x="422" y="508" font-size="10" fill="#071840">━━━━━━━━━━━━━━━━━━━━━━━━━━━━━━━━━━━━━━━━━━━━━━━━━━━━━━━━━━━━━━━━━━━━━━━━━━━━━━━</text>

<text x="422" y="530" font-size="13"><tspan fill="#1a4488">Fun fact:</tspan><tspan fill="#c880ff" font-weight="bold">  Leading full dev of PromptOptix — solo. Group's final year paper, all on me.</tspan></text>
<text x="422" y="550" font-size="13"><tspan fill="#1a4488">Ask me: </tspan><tspan fill="#60e0ff">  AI agents  ·  ML projects  ·  real-world AI  ·  agentic workflows</tspan></text>

<text x="422" y="566" font-size="10" fill="#071840">━━━━━━━━━━━━━━━━━━━━━━━━━━━━━━━━━━━━━━━━━━━━━━━━━━━━━━━━━━━━━━━━━━━━━━━━━━━━━━━</text>
<text x="422" y="588" font-size="11" fill="#1a4488" letter-spacing="2">CONNECT</text>

<rect x="422" y="596" width="96"  height="24" rx="12" fill="#000e1e" stroke="#0077b5" stroke-width="1.2"/>
<text x="470" y="613" font-size="12" fill="#3090cc" text-anchor="middle" font-weight="bold">LinkedIn</text>
<rect x="526" y="596" width="86"  height="24" rx="12" fill="#060810" stroke="#4488ff" stroke-width="1.2"/>
<text x="569" y="613" font-size="12" fill="#7090cc" text-anchor="middle" font-weight="bold">GitHub</text>
<rect x="620" y="596" width="102" height="24" rx="12" fill="#100010" stroke="#e4405f" stroke-width="1.2"/>
<text x="671" y="613" font-size="12" fill="#dd5070" text-anchor="middle" font-weight="bold">Instagram</text>
<rect x="730" y="596" width="64"  height="24" rx="12" fill="#060606" stroke="#555" stroke-width="1.2"/>
<text x="762" y="613" font-size="12" fill="#888898" text-anchor="middle" font-weight="bold">X</text>
<rect x="802" y="596" width="72"  height="24" rx="12" fill="#100400" stroke="#d14836" stroke-width="1.2"/>
<text x="838" y="613" font-size="12" fill="#cc4428" text-anchor="middle" font-weight="bold">Email</text>

<text x="422" y="650" font-size="14" fill="#00d4ff" filter="url(#glow4)">tanieshk</text>
<text x="507" y="650" font-size="14" fill="#6688aa">@cosmos</text>
<text x="583" y="650" font-size="14" fill="#445">:</text>
<text x="592" y="650" font-size="14" fill="#4488ff">~/ai-agents</text>
<text x="702" y="650" font-size="14" fill="#555">$ git commit -m </text>
<text x="858" y="650" font-size="14" fill="#00d4ff">"building the future"</text>
<text x="1060" y="650" font-size="14" fill="#00d4ff" class="cur">█</text>

<line x1="35" y1="636" x2="1168" y2="636" stroke="url(#neonH)" stroke-width="2" opacity=".55" filter="url(#glow4)"/>
<rect x="18" y="659" width="1164" height="3" rx="2" fill="url(#neonH)" filter="url(#glow4)" opacity=".7"/>
</g>
</svg>
